{"accessors" : [{"bufferView" : 0, "byteOffset" : 0, "componentType" : 5123, "count" : 2388, "type" : "SCALAR", "max" : [2315], "min" : [0]}, {"bufferView" : 1, "byteOffset" : 0, "componentType" : 5126, "count" : 2316, "type" : "VEC3", "max" : [0.2800000011920929, 0.2800000011920929, 0.009999999776482582], "min" : [-0.2800000011920929, -0.2800000011920929, -0.009999999776482582], "name" : "POSITION"}, {"bufferView" : 1, "byteOffset" : 12, "componentType" : 5126, "count" : 2316, "type" : "VEC3", "max" : [1.0000044107437134, 1.0000044107437134, 1.0000044107437134], "min" : [-1.0000044107437134, -1.0000044107437134, -1.0000044107437134], "name" : "NORMAL"}], "asset" : {"generator" : "Aspose.3D 22.6", "version" : "2.0"}, "buffers" : [{"uri" : "data:application/octet-stream;base64,", "byteLength" : 62096}], "bufferViews" : [{"buffer" : 0, "byteOffset" : 0, "byteLength" : 4776, "target" : 34963}, {"buffer" : 0, "byteOffset" : 4780, "byteLength" : 57312, "byteStride" : 24, "target" : 34962}], "materials" : [{"name" : "Material_0.010", "pbrMetallicRoughness" : {"baseColorFactor" : [0.7921568751335144, 0.8196078538894653, 0.9333333373069763, 1], "metallicFactor" : 0, "roughnessFactor" : 1}, "emissiveFactor" : [0, 0, 0], "alphaMode" : "OPAQUE", "doubleSided" : true}], "meshes" : [{"primitives" : [{"attributes" : {"POSITION" : 1, "NORMAL" : 2}, "indices" : 0, "material" : 0, "mode" : 4}]}], "nodes" : [{"mesh" : 0, "name" : "Node #0"}, {"children" : [0], "name" : "Panel_560x560"}], "scene" : 0, "scenes" : [{"nodes" : [1]}]}